<mxfile host="app.diagrams.net" modified="2024-02-01T01:45:32.741Z" agent="Mozilla/5.0 (Windows NT 10.0; Win64; x64) AppleWebKit/537.36 (KHTML, like Gecko) Chrome/120.0.0.0 Safari/537.36" version="23.1.0" etag="l6r7mxuRF0BByyvjHBj6" type="github">
  <diagram name="Page-1" id="TFEYmX98aUWleJ9En4n0">
    <mxGraphModel>
      <root>
        <mxCell id="0" />
        <mxCell id="1" parent="0" />
      </root>
    </mxGraphModel>
  </diagram>
</mxfile>
